<?xml version="1.0" standalone="no"?>
<!DOCTYPE svg PUBLIC "-//W3C//DTD SVG 20010904//EN"
 "http://www.w3.org/TR/2001/REC-SVG-20010904/DTD/svg10.dtd">
<svg version="1.0" xmlns="http://www.w3.org/2000/svg"
 width="250.000000pt" height="74.000000pt" viewBox="0 0 250.000000 74.000000"
 preserveAspectRatio="xMidYMid meet">

<g transform="translate(0.000000,74.000000) scale(0.100000,-0.100000)"
fill="#000000" stroke="none">
<path d="M47 703 c-4 -3 -7 -156 -7 -340 l0 -333 1213 2 1212 3 0 335 0 335
-1206 3 c-663 1 -1209 -1 -1212 -5z m2403 -333 l0 -310 -1200 0 -1200 0 0 303
c0 167 3 307 7 310 3 4 543 7 1200 7 l1193 0 0 -310z"/>
<path d="M100 370 l0 -270 575 0 575 0 0 270 0 270 -575 0 -575 0 0 -270z
m351 71 c67 -67 4 -174 -91 -155 -39 8 -61 35 -67 83 -5 35 -2 44 25 71 42 41
92 42 133 1z m199 9 c42 -42 15 -96 -50 -102 -30 -3 -35 -7 -38 -30 -2 -16 -8
-28 -13 -28 -5 0 -9 41 -9 90 l0 90 45 0 c32 0 51 -6 65 -20z m190 10 c0 -5
-20 -10 -45 -10 -43 0 -45 -1 -45 -30 0 -28 2 -30 40 -30 22 0 40 -4 40 -10 0
-5 -18 -10 -40 -10 -38 0 -40 -2 -40 -30 0 -29 2 -30 45 -30 25 0 45 -4 45
-10 0 -5 -25 -10 -55 -10 l-55 0 0 90 0 90 55 0 c30 0 55 -4 55 -10z m136 -57
l49 -68 3 68 c4 100 22 82 22 -23 0 -66 -3 -90 -13 -90 -6 0 -32 30 -57 66
l-45 67 -3 -67 c-4 -94 -26 -84 -30 14 -5 123 5 127 74 33z"/>
<path d="M343 435 c-38 -26 -37 -92 1 -117 22 -15 73 -8 91 12 57 63 -23 154
-92 105z"/>
<path d="M560 410 c0 -39 1 -40 33 -40 34 0 57 15 57 36 0 22 -31 44 -61 44
-27 0 -29 -2 -29 -40z"/>
<path d="M1490 381 l0 -91 64 0 c60 0 66 2 91 32 22 26 26 39 21 67 -9 55 -35
74 -111 79 l-65 4 0 -91z m108 27 c18 -18 14 -56 -7 -68 -34 -18 -41 -11 -41
35 0 37 3 45 18 45 10 0 23 -5 30 -12z"/>
<path d="M1743 453 c-3 -10 -18 -49 -34 -88 l-27 -70 26 -3 c15 -2 28 1 30 7
5 14 72 15 72 1 0 -5 14 -10 30 -10 17 0 30 1 30 3 0 1 -15 40 -33 87 -29 75
-37 85 -60 88 -19 2 -29 -2 -34 -15z m47 -90 c0 -7 -7 -13 -15 -13 -16 0 -19
9 -9 35 5 13 8 14 15 3 5 -7 9 -19 9 -25z"/>
<path d="M1880 445 c0 -21 5 -25 30 -25 l30 0 0 -65 c0 -63 1 -65 25 -65 24 0
25 2 25 64 0 63 1 65 28 68 19 2 27 9 27 23 0 18 -8 20 -82 23 -83 3 -83 3
-83 -23z"/>
<path d="M2126 461 c-5 -8 -66 -163 -66 -168 0 -2 14 -3 30 -3 17 0 30 5 30
10 0 14 67 13 72 -1 2 -6 15 -9 30 -7 l26 3 -35 88 c-30 75 -38 87 -58 87 -13
0 -26 -4 -29 -9z m44 -103 c0 -5 -7 -8 -15 -8 -15 0 -20 21 -8 33 7 7 23 -11
23 -25z"/>
</g>
</svg>
